/* XPM */
static char * bitcoin32_xpm[] = {
"32 32 117 2",
"  	c None",
". 	c #6B6A6A",
"+ 	c #2D8FCD",
"@ 	c #686767",
"# 	c #6A6969",
"$ 	c #6D6C6C",
"% 	c #6E6D6D",
"& 	c #6F6E6E",
"* 	c #2C87C7",
"= 	c #2C8AC9",
"- 	c #2D8CCB",
"; 	c #2C8ECC",
"> 	c #2D91CF",
", 	c #2D92D0",
"' 	c #2B93D0",
") 	c #666565",
"! 	c #676666",
"~ 	c #696868",
"{ 	c #6C6B6B",
"] 	c #706F6F",
"^ 	c #2B84C4",
"/ 	c #2D87C7",
"( 	c #2D89C8",
"_ 	c #2D8BC9",
": 	c #2C8DCB",
"< 	c #2C8FCD",
"[ 	c #2C94D0",
"} 	c #646363",
"| 	c #656464",
"1 	c #2982C2",
"2 	c #2D86C5",
"3 	c #2C88C7",
"4 	c #2C8CCB",
"5 	c #2D8DCB",
"6 	c #2C94D1",
"7 	c #626161",
"8 	c #636262",
"9 	c #257EC0",
"0 	c #2880C1",
"a 	c #2A82C3",
"b 	c #2B85C5",
"c 	c #2C92CF",
"d 	c #605F5F",
"e 	c #237CBD",
"f 	c #247DBF",
"g 	c #267FC0",
"h 	c #2881C2",
"i 	c #2D90CD",
"j 	c #5E5D5D",
"k 	c #5F5E5E",
"l 	c #616060",
"m 	c #2278BB",
"n 	c #237ABC",
"o 	c #247BBD",
"p 	c #257DBF",
"q 	c #2D8DCC",
"r 	c #1E74B8",
"s 	c #2176B9",
"t 	c #2178BB",
"u 	c #237BBD",
"v 	c #717070",
"w 	c #2C8BCA",
"x 	c #5C5B5B",
"y 	c #5D5C5C",
"z 	c #1E71B5",
"A 	c #1E73B7",
"B 	c #1F75B8",
"C 	c #2177BA",
"D 	c #2B8AC9",
"E 	c #2C8BC9",
"F 	c #2D8BCA",
"G 	c #5A5959",
"H 	c #5B5A5A",
"I 	c #1E6FB4",
"J 	c #2C89C8",
"K 	c #595858",
"L 	c #1F6EB3",
"M 	c #1E70B4",
"N 	c #1E72B6",
"O 	c #2D86C6",
"P 	c #206DB3",
"Q 	c #1E6EB3",
"R 	c #1D70B4",
"S 	c #2C84C5",
"T 	c #2B84C5",
"U 	c #206BB1",
"V 	c #1F6DB3",
"W 	c #2982C3",
"X 	c #585757",
"Y 	c #206AB0",
"Z 	c #206CB1",
"` 	c #247EC0",
" .	c #2680C1",
"..	c #216AB0",
"+.	c #247CBE",
"@.	c #257DBE",
"#.	c #2178BA",
"$.	c #2179BB",
"%.	c #227ABC",
"&.	c #227BBD",
"*.	c #2076B9",
"=.	c #1E74B7",
"-.	c #1E75B8",
";.	c #216BB1",
">.	c #206DB1",
",.	c #206DB2",
"'.	c #1E6FB3",
").	c #1E70B5",
"!.	c #2468AE",
"~.	c #2269AF",
"{.	c #2169B0",
"].	c #206BB2",
"^.	c #2467AD",
"/.	c #226AB0",
"(.	c #216CB1",
"_.	c #206CB2",
":.	c #2368AE",
"                                                                ",
"                                                                ",
"                                                                ",
"                                                                ",
"                                                                ",
"                    .                     +                     ",
"                @ # . $ % &         * = - ; > , '               ",
"            ) ! @ ~ . { % & ]     ^ / ( _ : < > , [             ",
"          } | ! @ ~ # { $ %     1 ^ 2 3 = 4 5 < > , 6           ",
"        7 8 | | !             9 0 a b         5 < > c ,         ",
"      d 7 8 } |             e f g h             5 ; i > >       ",
"    j k l 7 8             m n o p                 4 q + < <     ",
"    j k d 7             r s t u     ] v             w - - : 4   ",
"  x y j k             z A B C     & ] ] v             D E F F   ",
"G H x y               I z A         & ] ]               3 J ( 3 ",
"K H x                 L M N         % % &                 2 O O ",
"K G H                 P Q R         $ % &                 ^ S T ",
"K K H x               U V I         { $ %               h 1 W W ",
"  X G H x             Y Z L I     # . . {             ` g  . .  ",
"    K G H x             ..Z     @ @ ~ #             u +.@.f f   ",
"    X K G x y                 ) ) ! @             #.$.%.n &.    ",
"      K K H x y             } | ) )             B *.*.C #.      ",
"        K G H x x         7 7 } }             N A =.=.-.        ",
"          K G H x y y k k d l 7     ;.>.,.L '.).z N N           ",
"            K G H x y j k k d     !.~.{.U ].P V '.I             ",
"                G H x y j k         ^.!.~./.;.(._.              ",
"                    H                     :.                    ",
"                                                                ",
"                                                                ",
"                                                                ",
"                                                                ",
"                                                                "};
