/* XPM */
static char * bitcoin64_xpm[] = {
"64 64 152 2",
"  	c None",
". 	c #6A6969",
"+ 	c #6B6A6A",
"@ 	c #6C6B6B",
"# 	c #6D6C6C",
"$ 	c #2C8CCB",
"% 	c #2D8ECC",
"& 	c #2C8FCD",
"* 	c #2D90CD",
"= 	c #2D91CF",
"- 	c #2C91CF",
"; 	c #686767",
"> 	c #696868",
", 	c #6E6D6D",
"' 	c #6F6E6E",
") 	c #2D89C8",
"! 	c #2C8AC9",
"~ 	c #2C8BCA",
"{ 	c #2D8CCA",
"] 	c #2C90CE",
"^ 	c #2C92CF",
"/ 	c #2C93D0",
"( 	c #676666",
"_ 	c #2C87C7",
": 	c #2C88C7",
"< 	c #2C89C8",
"[ 	c #2D8BC9",
"} 	c #2D8CCB",
"| 	c #2C8DCB",
"1 	c #2C8ECC",
"2 	c #2D8FCD",
"3 	c #2D92D0",
"4 	c #2B94D1",
"5 	c #666565",
"6 	c #706F6F",
"7 	c #2D85C5",
"8 	c #2D87C6",
"9 	c #2B8AC9",
"0 	c #2C90CD",
"a 	c #2D93D0",
"b 	c #656464",
"c 	c #2C84C4",
"d 	c #2B85C5",
"e 	c #2C86C5",
"f 	c #2D87C7",
"g 	c #2D8AC9",
"h 	c #646363",
"i 	c #2A82C3",
"j 	c #2B84C4",
"k 	c #2E85C5",
"l 	c #636262",
"m 	c #2881C1",
"n 	c #2A82C2",
"o 	c #2C85C5",
"p 	c #626161",
"q 	c #2680C0",
"r 	c #2780C1",
"s 	c #2881C2",
"t 	c #2A83C3",
"u 	c #247DBF",
"v 	c #257FC0",
"w 	c #267FC0",
"x 	c #2982C2",
"y 	c #616060",
"z 	c #247CBE",
"A 	c #257DBF",
"B 	c #247EC0",
"C 	c #5F5E5E",
"D 	c #605F5F",
"E 	c #227ABC",
"F 	c #247BBD",
"G 	c #247FC0",
"H 	c #2178BB",
"I 	c #237ABC",
"J 	c #227BBD",
"K 	c #247CBD",
"L 	c #5E5D5D",
"M 	c #2077BA",
"N 	c #2278BA",
"O 	c #237BBD",
"P 	c #247EBF",
"Q 	c #2C8ECD",
"R 	c #5D5C5C",
"S 	c #1F75B8",
"T 	c #2176B9",
"U 	c #2178BA",
"V 	c #2179BB",
"W 	c #717070",
"X 	c #2D8DCC",
"Y 	c #2C8ECB",
"Z 	c #5C5B5B",
"` 	c #1E73B7",
" .	c #1F74B8",
"..	c #1E76B9",
"+.	c #2076B9",
"@.	c #1D72B6",
"#.	c #1E74B7",
"$.	c #5B5A5A",
"%.	c #1E71B5",
"&.	c #5A5959",
"*.	c #1E70B4",
"=.	c #1D71B5",
"-.	c #1F71B5",
";.	c #1E74B8",
">.	c #1F76B9",
",.	c #1E6FB3",
"'.	c #1E70B5",
").	c #595858",
"!.	c #1E6EB3",
"~.	c #1E6FB4",
"{.	c #1D70B5",
"].	c #1E72B6",
"^.	c #1F6EB3",
"/.	c #1D73B7",
"(.	c #1F6DB2",
"_.	c #1D6FB4",
":.	c #216CB1",
"<.	c #2B83C4",
"[.	c #585757",
"}.	c #206BB1",
"|.	c #216BB1",
"1.	c #1F6BB1",
"2.	c #1D6FB3",
"3.	c #2680C1",
"4.	c #216AB0",
"5.	c #247DC0",
"6.	c #216AB1",
"7.	c #267DBF",
"8.	c #247DBE",
"9.	c #217ABC",
"0.	c #227ABD",
"a.	c #2177BA",
"b.	c #2278BB",
"c.	c #2279BC",
"d.	c #2076BA",
"e.	c #2378BB",
"f.	c #206CB1",
"g.	c #216CB2",
"h.	c #1E6EB2",
"i.	c #2269AF",
"j.	c #206DB2",
"k.	c #1D6EB3",
"l.	c #1D70B4",
"m.	c #2368AE",
"n.	c #2369AF",
"o.	c #2169AF",
"p.	c #2468AE",
"q.	c #206CB2",
"r.	c #2567AD",
"s.	c #226AB0",
"t.	c #206AB0",
"u.	c #2367AD",
"                                                                                                                                ",
"                                                                                                                                ",
"                                                                                                                                ",
"                                                                                                                                ",
"                                                                                                                                ",
"                                                                                                                                ",
"                                                                                                                                ",
"                                                                                                                                ",
"                                                                                                                                ",
"                                                                                                                                ",
"                                                                                                                                ",
"                                      . + @ @ #                                 $ % & * = -                                     ",
"                                ; > . . + @ @ # , , '                     ) ! ~ { $ % & ] = ^ /                                 ",
"                            ( ; ; ; > . + + @ # # , ' '                 _ : < [ ~ } | 1 2 = - 3 / 4                             ",
"                          5 ( ( ; ; > . + + @ # # , , ' 6             7 8 _ ) 9 [ } $ % & 0 = - a / 4                           ",
"                        b 5 5 ( ; ; > . . + @ @ # , , ' 6 6         c d e f : < g ~ } $ % & 0 = - a / 4                         ",
"                      h b b 5 ( ( ; > > . + + @ # # , ' '         i j d k 8 _ ) < [ { $ % % & 0 = - 3 a /                       ",
"                    l h b b 5 ( ( ; ; >       @ @ # , ,         m n i c o o 8 _ )       $ % % & 0 = - ^ a a                     ",
"                  p l h h b 5 5 ( ;               # #         q r s i t j 7 e               % % & * = = ^ a a                   ",
"                p p l l h b b 5 5                           u v w m x i j d                   | % & 2 ] = = - ^                 ",
"              y y p p l h b b 5                           z A B w r s n i                       | % 1 & * ] = = -               ",
"            C D y y p l l h b                           E F z u G w r s                           $ | % & & * ] - =             ",
"          C C D D y p p l h                           H I J K u u v w                               $ $ % % & & 2 * *           ",
"        L L C D D y p p l                           M N H I O K A P                                   $ } $ | % % 1 Q 1         ",
"      R R L C C D y y p                           S T U H V E F z         6 W                           { { $ $ | X % % Y       ",
"      Z R L C C D D y                           `  ...+.N H I J         6 6 6 W                           ~ ~ { } } $ $ $ $     ",
"    Z Z R L L C C D                           @.` #.S +.M H V         ' 6 6 6 6 W                           g [ [ ~ { { { {     ",
"  $.$.Z Z R L C C                             %.@.` #.S T M         , ' ' 6 6 6 6                             < ! 9 ! g g [ g   ",
"  &.$.Z Z R L L                             *.=.-.` ` ;.>.            , ' ' 6 6 6 6                             ) ) ) ) ) ) )   ",
"  &.$.$.Z R R                               ,.*.'.%.` `                 , ' ' 6 6 6                               _ _ _ _ _ :   ",
"  ).&.$.Z Z R                               !.~.{.-.].`                 , , ' ' 6 6                               e 8 8 8 8 f 8 ",
"  ).&.$.$.Z Z                               ^.!.~.{.-./.                # , , ' ' 6                                 7 7 7 7 7 7 ",
"  ).&.&.$.Z Z                               (.^.!._.{.-.                # # , , ' '                                 d d d d d d ",
"  ).).&.$.$.Z                               :.(.^.,.~.=.                @ # # , , ,                               i t <.<.<.<.j ",
"  [.).&.&.$.Z                               }.:.(.!.,.*.                @ @ # # , ,                               x i i i i i   ",
"  [.).).&.$.$.Z                             |.1.:.(.!.2.*.            + + @ @ # # #                             r m m m m s s   ",
"  [.[.).).&.$.Z Z                             |.}.:.^.!.2.*.        . . + + + @ @                             w w w 3.3.3.3.3.  ",
"    [.).).&.&.$.Z Z                           4.|.}.:.^.!.        > > . . + + + +                           A u 5.B B B v v     ",
"      [.).).&.$.$.Z Z                           4.6.}.:.        ; ; ; > > . . +                           K z u A A A A 7.u     ",
"      [.[.).).&.$.$.Z Z                           4.|.        ( ( ; ; ; > > .                           I O O O F K 8.K 8.      ",
"        [.).).&.&.$.Z Z Z                           4.      5 5 ( ( ; ; ; >                           H 9.I E J J 0.O O         ",
"          [.).).&.&.$.Z Z R                               b b 5 5 ( ( ; ;                           a.b.H H H V c.E I           ",
"            ).).).&.$.$.Z Z R                           h h b b b 5 5 (                           +.T d.M U b.b.e.H             ",
"              ).).).&.$.$.Z Z R                       l l h h b b b 5 5                         ;. .S >.>.T T T +.              ",
"                ).).&.&.$.$.Z Z R                   p p l l h h h b                           ` ` ` #.;. .S S ..                ",
"                  ).).&.&.$.$.Z Z R               y y p p p l l h         (.!.              -.]./.` ` ` ` #.#.                  ",
"                    ).).&.&.$.$.Z Z R R       C D D y y p p p l         |.f.g.(.h.      2.*.{.{.%.-.-.].` `                     ",
"                      ).).&.&.$.$.Z Z R R L L C C D D D y y p         i.4.4.}.f.g.j.!.^.^.k.,.~.*.l.{.{.%.                      ",
"                        ).).&.&.$.$.Z Z R R L L C C D D y y         m.n.i.o.4.|.1.f.g.j.^.^.!.!.,.~.*.l.                        ",
"                          ).).&.&.$.$.Z Z R R L L C C C D             p.n.n.i.4.4.|.}.f.g.q.j.^.^.^.!.                          ",
"                            ).).&.&.$.$.Z Z R R L L C C                 r.p.n.n.n.s.t.|.|.}.:.g.g.(.                            ",
"                                ).&.&.$.$.Z Z R R R L                     u.r.p.m.n.n.i.4.4.|.}.                                ",
"                                      &.$.$.Z Z                                 r.r.m.n.n.i.                                    ",
"                                                                                                                                ",
"                                                                                                                                ",
"                                                                                                                                ",
"                                                                                                                                ",
"                                                                                                                                ",
"                                                                                                                                ",
"                                                                                                                                ",
"                                                                                                                                ",
"                                                                                                                                ",
"                                                                                                                                ",
"                                                                                                                                "};
