/* XPM */
static char * bitcoin16_xpm[] = {
"16 16 60 1",
" 	c None",
".	c #696868",
"+	c #6C6B6B",
"@	c #6F6E6E",
"#	c #2D89C7",
"$	c #2D8CCB",
"%	c #2D91CF",
"&	c #2C93D0",
"*	c #636262",
"=	c #656464",
"-	c #686767",
";	c #6E6D6D",
">	c #2A82C2",
",	c #2C86C6",
"'	c #2C8DCB",
")	c #5F5E5E",
"!	c #626161",
"~	c #646363",
"{	c #247BBD",
"]	c #267FC1",
"^	c #2D8FCD",
"/	c #2C8FCD",
"(	c #5E5D5D",
"_	c #605F5F",
":	c #1F75B8",
"<	c #2179BB",
"[	c #706F6F",
"}	c #2C8BCA",
"|	c #2D8CCA",
"1	c #5A5959",
"2	c #5D5C5C",
"3	c #1F6EB3",
"4	c #1E72B6",
"5	c #2D87C7",
"6	c #595858",
"7	c #5C5B5B",
"8	c #206CB1",
"9	c #1E6FB3",
"0	c #6D6C6C",
"a	c #2A83C3",
"b	c #2B83C4",
"c	c #216CB1",
"d	c #696767",
"e	c #6B6A6A",
"f	c #237CBE",
"g	c #247EBF",
"h	c #5B5A5A",
"i	c #656363",
"j	c #666565",
"k	c #2077B9",
"l	c #2278BC",
"m	c #2279BC",
"n	c #616060",
"o	c #206CB2",
"p	c #1E70B5",
"q	c #1E73B7",
"r	c #1E74B8",
"s	c #2368AE",
"t	c #216AB0",
"u	c #216CB2",
"                ",
"                ",
"                ",
"    .+@  #$%&   ",
"  *=- ; >, '%&  ",
" )!~   {]   '^/ ",
" (_   :< [   }| ",
"12   34  @[   55",
"67   89  0@   ab",
" 17   c de   fg ",
" 6h2   ij   klm ",
"  6h2 n* o pqr  ",
"    h2)  stu3   ",
"                ",
"                ",
"                "};
